# Blender v3.1.2 OBJ File: ''
# www.blender.org
mtllib bank_long_sign.mtl
o cube.001_cube.001
v -0.750000 -0.235003 -0.041513
v 0.750000 -0.235004 -0.041515
v 0.750000 0.212693 0.108222
v -0.750000 0.212693 0.108223
v 0.750000 0.235003 0.041514
v -0.750000 0.235005 0.041514
v 0.750000 -0.212694 -0.108222
v -0.750000 -0.212694 -0.108222
vt 0.000000 0.000000
vt 1.000000 0.000000
vt 1.000000 1.000000
vt 0.000000 1.000000
vt 0.375000 0.828036
vt 0.625000 0.828036
vt 0.625000 0.948566
vt 0.375000 0.948566
vt 0.375000 0.500000
vt 0.625000 0.500000
vt 0.625000 0.750000
vt 0.375000 0.750000
vt 0.375000 0.068176
vt 0.625000 0.068176
vt 0.625000 0.181824
vt 0.375000 0.181824
vt 1.000000 1.000000
vt 0.945530 1.000000
vt 0.945530 0.000000
vt 1.000000 0.000000
vt 1.000000 1.000000
vt 0.943750 1.000000
vt 0.943750 0.000000
vt 1.000000 0.000000
vn 0.0000 -0.3172 0.9484
vn 0.0000 0.9484 0.3172
vn 0.0000 0.3172 -0.9484
vn -0.0000 -0.9484 -0.3172
vn -1.0000 0.0000 0.0000
vn 1.0000 -0.0000 -0.0000
usemtl Material.002
s off
f 1/1/1 2/2/1 3/3/1 4/4/1
f 4/5/2 3/6/2 5/7/2 6/8/2
f 6/9/3 5/10/3 7/11/3 8/12/3
f 8/13/4 7/14/4 2/15/4 1/16/4
f 4/17/5 6/18/5 8/19/5 1/20/5
f 5/21/6 3/22/6 2/23/6 7/24/6
